<svg width="492" height="62" viewBox="0 0 492 62" fill="none" xmlns="http://www.w3.org/2000/svg">
<path d="M11.1358 60.9267C7.37566 60.9267 2.60317 59.756 0 56.9755L1.30159 54.4877C3.76014 56.9755 7.80952 58.1463 11.2804 58.1463C14.0282 58.1463 16.0529 57.7072 17.3545 56.6828C18.6561 55.6585 19.3792 54.3414 19.3792 52.7316C19.3792 51.5609 18.9453 50.5365 18.2222 49.8048C17.4991 49.0731 16.6314 48.4877 15.4744 48.195C14.4621 47.756 13.0159 47.4633 11.1358 46.878C8.82187 46.2926 7.08642 45.7072 5.64021 45.2682C4.33862 44.6828 3.18166 43.9511 2.16931 42.7804C1.15697 41.6097 0.723104 40.1463 0.723104 38.2438C0.723104 36.6341 1.15697 35.317 1.88007 33.9999C2.7478 32.6828 3.90476 31.6585 5.64021 30.9267C7.37566 30.195 9.40035 29.756 11.8589 29.756C15.0406 29.756 18.6561 30.6341 21.2593 32.3902L20.2469 35.0243C17.7884 33.4146 14.8959 32.5365 12.0035 32.5365C9.40035 32.5365 7.37566 33.1219 6.07407 34.1463C4.77249 35.1707 4.04938 36.4877 4.04938 38.0975C4.04938 39.2682 4.48324 40.2926 5.20635 41.0243C5.92945 41.756 6.79718 42.3414 7.95414 42.7804C9.11111 43.2194 10.5573 43.6585 12.4374 44.0975C14.6067 44.6828 16.4868 45.1219 17.7884 45.7072C19.0899 46.2926 20.2469 47.0243 21.2593 48.195C22.2716 49.2194 22.7055 50.8292 22.7055 52.5853C22.7055 54.195 22.2716 55.5121 21.5485 56.8292C20.6808 58.1463 19.5238 59.0243 17.7884 59.9024C15.7637 60.6341 13.739 60.9267 11.1358 60.9267ZM37.4568 32.9755H26.8995V30.195H51.3404V32.9755H40.7831V60.7804H37.6014V32.9755H37.4568ZM80.1199 57.8536V60.6341H58.8607V30.195H79.5414V32.9755H62.0423V43.8048H77.6614V46.5853H62.0423V57.8536H80.1199ZM72.3104 22.2926H76.3598L69.418 27.7072H66.381L72.3104 22.2926ZM101.524 30.195C105.429 30.195 108.321 31.0731 110.635 32.9755C112.804 34.878 113.961 37.3658 113.961 40.5853C113.961 43.8048 112.804 46.4389 110.635 48.195C108.466 50.0975 105.429 50.9755 101.524 50.9755H93.425V60.6341H90.2434V30.195H101.524ZM101.379 48.195C104.416 48.195 106.586 47.4633 108.176 46.1463C109.767 44.8292 110.49 42.9267 110.49 40.5853C110.49 34.878 106.296 32.9755 101.235 32.9755H93.2804V48.195H101.379ZM148.526 30.195V60.7804H145.344V46.7316H126.543V60.7804H123.362V30.195H126.543V43.8048H145.489V30.195H148.526ZM171.376 33.5609C163.277 51.9999 166.314 45.2682 159.372 60.7804H156.046L169.785 30.195H172.966L186.705 60.7804H183.379C177.305 47.0243 178.751 50.0975 171.376 33.5609ZM219.534 30.195V60.7804H216.931L197.552 36.0487V60.7804H194.37V30.195H196.974L216.353 54.9268V30.195H219.534ZM231.972 30.195H235.153V60.7804H231.972V30.195ZM268.85 57.8536V60.6341H247.591V30.195H268.272V32.9755H250.772V43.8048H266.392V46.5853H250.772V57.8536H268.85ZM307.753 33.5609C300.667 49.5121 301.679 47.4633 295.75 60.7804H292.423L306.162 30.195H309.344L323.083 60.7804H319.757C312.959 45.2682 315.996 51.9999 307.753 33.5609ZM355.912 30.195V60.7804H353.309L333.929 36.0487V60.7804H330.748V30.195H333.351L352.73 54.9268V30.195H355.912ZM389.608 45.4146H392.646V57.1219C389.608 59.756 385.559 61.0731 381.51 61.0731C375.869 61.0731 370.663 58.5853 367.626 53.4633C366.18 51.1219 365.601 48.4877 365.601 45.5609C365.601 39.8536 368.349 34.878 373.411 32.0975C375.87 30.7804 378.617 30.0487 381.654 30.0487C385.848 30.0487 390.042 31.2194 392.79 34.4389L390.765 36.4877C388.452 34.1463 385.414 32.9755 381.654 32.9755C379.196 32.9755 377.026 33.5609 375.002 34.5853C370.952 36.7804 368.638 40.878 368.638 45.5609C368.638 50.2438 370.952 54.3414 375.002 56.5365C377.026 57.7072 379.196 58.1463 381.654 58.1463C384.691 58.1463 387.439 57.4146 389.608 55.8048V45.4146ZM425.474 57.8536V60.6341H404.215V30.195H424.896V32.9755H407.397V43.8048H423.016V46.5853H407.397V57.8536H425.474ZM435.598 30.195H438.78V57.9999H455.7V60.7804H435.598V30.195ZM476.092 60.9267C467.27 60.9267 460.183 54.4877 460.183 45.4146C460.183 36.195 467.125 29.9024 476.092 29.9024C481.732 29.9024 486.938 32.3902 489.831 37.5121C491.277 39.8536 491.855 42.4877 491.855 45.4146C491.855 48.3414 491.132 50.9755 489.831 53.317C486.938 58.4389 481.732 60.9267 476.092 60.9267ZM476.092 58.1463C483.323 58.1463 488.674 52.878 488.674 45.5609C488.674 38.2438 483.323 32.9755 476.092 32.9755C468.861 32.9755 463.365 38.2438 463.365 45.5609C463.365 52.878 468.861 58.1463 476.092 58.1463Z" fill="#8F7D5E"/>
<path fill-rule="evenodd" clip-rule="evenodd" d="M0 0.926758H5.92945C7.37566 0.926758 8.67725 1.21944 9.83421 1.80481C10.8466 2.39017 11.7143 3.12188 12.4374 4.14627C13.0159 5.17066 13.3051 6.48773 13.3051 7.80481C13.3051 9.12188 13.0159 10.2926 12.4374 11.4633C11.8589 12.4877 10.9912 13.3658 9.83421 13.8048C8.67725 14.3902 7.37566 14.6829 5.92945 14.6829H0V0.926758ZM5.78483 12.4877C6.79718 12.4877 7.6649 12.3414 8.38801 11.9024C9.11111 11.4633 9.68959 11.0243 10.1235 10.2926C10.5573 9.5609 10.7019 8.8292 10.7019 7.80481C10.8466 6.78042 10.5573 6.04871 10.1235 5.317C9.68959 4.58529 9.11111 3.99993 8.38801 3.70725C7.6649 3.26822 6.79718 3.12188 5.78483 3.12188H2.45855V12.4877H5.78483ZM26.1764 14.6829L23.4286 10.7316C23.284 10.7316 23.1393 10.7316 22.8501 10.7316H19.813V14.6829H17.3545V0.926758H22.9947C24.1517 0.926758 25.164 1.0731 26.0317 1.51212C26.8995 1.95115 27.6226 2.53651 28.0564 3.26822C28.4903 3.99993 28.7795 4.87798 28.7795 5.90237C28.7795 6.92676 28.4903 7.80481 28.0564 8.53651C27.6226 9.26822 26.8995 9.85359 25.8871 10.1463L29.0688 14.6829H26.1764ZM26.0317 5.75603C26.0317 4.87798 25.7425 4.14627 25.164 3.70725C24.5855 3.26822 23.7178 2.97554 22.7055 2.97554H19.813V8.39017H22.7055C23.8624 8.39017 24.5855 8.09749 25.164 7.65847C25.7425 7.36578 26.0317 6.63408 26.0317 5.75603ZM41.5062 11.4633H34.709L33.2628 14.6829H30.6596L36.8783 0.926758H39.3369L45.4109 14.6829H42.8078L41.5062 11.4633ZM40.6384 9.41456L38.0353 3.41456L35.4321 9.41456H40.6384ZM49.6049 14.8292C49.1711 14.8292 48.7372 14.6829 48.448 14.3902C48.1587 14.0975 48.0141 13.6585 48.0141 13.2194C48.0141 12.7804 48.1587 12.3414 48.448 12.0487C48.7372 11.756 49.1711 11.6097 49.6049 11.6097C50.0388 11.6097 50.4727 11.756 50.7619 12.0487C51.0511 12.3414 51.1958 12.7804 51.1958 13.2194C51.1958 13.6585 51.0511 14.0975 50.7619 14.3902C50.328 14.6829 50.0388 14.8292 49.6049 14.8292Z" fill="#8F7D5E"/>
</svg>
