<svg width="72" height="56" viewBox="0 0 72 56" fill="none" xmlns="http://www.w3.org/2000/svg">
<path d="M71.9367 19.7619C71.7902 13.1244 69.716 7.31651 64.201 3.14364C58.3687 -1.27326 50.1694 -1.00483 44.996 3.75371C38.5293 9.70798 38.7977 19.1518 45.6793 24.4716C49.6813 27.5708 54.0982 27.5708 58.5395 25.3989C60.3942 24.496 61.5655 25.0329 61.7851 27.0339C61.8095 27.4 61.8095 27.766 61.8095 28.1321C61.6631 34.3548 59.2472 39.6502 55.1964 44.2623C52.1948 47.6787 48.3636 49.9725 44.2883 51.9003C43.9223 52.0712 43.4831 52.5104 43.4342 52.8764C43.3122 53.7794 43.3854 54.7311 43.3854 56C45.6061 55.1459 47.6071 54.4626 49.5349 53.6329C64.1278 47.337 72.2783 35.0624 71.9367 19.7619Z" fill="#D2CBBE"/>
<path d="M23.8631 3.14364C18.0308 -1.27326 9.83152 -1.00483 4.65814 3.75371C-1.78419 9.70798 -1.54016 19.1518 5.36582 24.4716C9.36787 27.5708 13.7848 27.5708 18.2261 25.3989C20.0807 24.496 21.252 25.0329 21.4716 27.0339C21.496 27.4 21.496 27.766 21.496 28.1321C21.3496 34.3548 18.9337 39.6502 14.8829 44.2623C11.8814 47.6787 8.05012 49.9725 3.97486 51.9003C3.60882 52.0712 3.16957 52.5104 3.12076 52.8764C2.99875 53.7794 3.07196 54.7311 3.07196 56C5.29261 55.1459 7.29363 54.4626 9.22145 53.6329C23.7899 47.3614 31.9404 35.0868 31.5988 19.7863C31.4524 13.1244 29.3781 7.31651 23.8631 3.14364Z" fill="#D2CBBE"/>
</svg>
