<svg width="563" height="837" viewBox="0 0 563 837" fill="none" xmlns="http://www.w3.org/2000/svg">
<path fill-rule="evenodd" clip-rule="evenodd" d="M233.382 139.257L-4.5069 139.58L-133.59 272.243C-118.354 323.786 -90.4289 369.431 -40.4165 397.527C8.12866 424.798 65.2326 432.053 119.442 439.381C172.935 397.536 234.716 351.754 303.064 343.592C410.789 337.918 487.361 399.6 559.381 473.428L563 477.138L405.089 639.427C417.08 686.518 419.427 737.218 419.427 789.266L259.084 789.48L140.844 911L22.6046 789.795H22.6003L4.25647 770.987L-1.29227 765.304L249.148 764.976L378.364 632.181C363.11 580.561 335.146 534.851 285.053 506.737C237.313 479.941 179.635 472.266 126.124 465.02C79.9394 501.278 30.8651 540.06 -25.7007 556.977C-139.188 590.911 -237.43 517.848 -313.562 439.818L-322 431.169L-160.324 265.006C-171.398 220.659 -174.648 173.031 -174.648 127.536V115.29L-14.4391 115.076L97.5318 0L209.498 114.775L215.505 120.932L233.382 139.257ZM-38.3221 139.626L-150.649 139.776C-150.182 174.248 -147.639 210.241 -140.49 244.626L-38.3221 139.626ZM152.898 444.07C213.958 453.171 279.406 467.208 327.752 506.423C361.932 538.037 383.54 573.999 397.126 612.9L529.148 477.22C461.063 409.335 372.896 344.849 273.089 374.763C229.261 387.897 189.772 415.61 152.898 444.07ZM225.26 789.526L56.4207 789.749L140.84 876.283L225.26 789.526ZM282.973 764.93L395.432 764.784C394.966 730.272 392.413 694.233 385.26 659.803L282.973 764.93ZM92.6465 460.404C42.9453 453.271 -8.02304 443.692 -51.9178 419.019C-104.113 389.684 -134.857 343.956 -152.525 291.702L-288.144 431.087C-220.139 498.894 -132.087 563.275 -32.3913 533.443C13.9043 519.589 54.318 490.281 92.6465 460.404ZM19.377 115.03L175.679 114.821L97.5274 34.7128L19.377 115.03Z" fill="url(#paint0_linear_35_2798)"/>
<defs>
<linearGradient id="paint0_linear_35_2798" x1="120.5" y1="0" x2="120.5" y2="911" gradientUnits="userSpaceOnUse">
<stop stop-color="#F7F1E7"/>
<stop offset="1" stop-color="#BAB09B"/>
</linearGradient>
</defs>
</svg>
