<svg width="253" height="46" viewBox="0 0 253 46" fill="none" xmlns="http://www.w3.org/2000/svg">
<path d="M59.3864 15.7061C57.5099 15.7061 56.063 14.4023 56.063 12.5348C56.063 10.6609 57.5173 9.36282 59.3962 9.36282C60.2652 9.36282 61.121 9.63208 61.7204 10.2718L61.2933 10.69C60.7978 10.1974 60.1704 9.95155 59.4135 9.95155C57.9007 9.95155 56.7259 11.0337 56.7259 12.5348C56.7259 14.0359 57.9007 15.118 59.4135 15.118C60.177 15.118 60.8036 14.8689 61.2933 14.3699L61.7204 14.7889C61.1202 15.4278 60.2578 15.7061 59.3864 15.7061ZM64.9695 9.41613H65.6415V15.0825H69.2015V15.6527H64.9695V9.41613ZM72.1324 9.41613H72.8051V15.6527H72.1324V9.41613ZM73.1226 7.80426H73.9849L72.5141 8.90907H71.8785L73.1226 7.80426ZM82.0019 9.41613V15.6527H81.4479L77.3619 10.5921V15.6527H76.69V9.41613H77.2432L81.3391 14.4767V9.41613H82.0019ZM85.8867 9.41613H86.5587V15.6527H85.8867V9.41613ZM93.2046 15.7061C91.3273 15.7061 89.8804 14.4023 89.8804 12.5348C89.8804 10.6609 91.3347 9.36282 93.2137 9.36282C94.0826 9.36282 94.9393 9.63208 95.5386 10.2718L95.1115 10.69C94.6152 10.1974 93.9887 9.95155 93.2318 9.95155C91.7181 9.95155 90.5441 11.0337 90.5441 12.5348C90.5441 14.0359 91.7181 15.118 93.2318 15.118C93.9944 15.118 94.621 14.8689 95.1115 14.3699L95.5386 14.7889C94.9384 15.4278 94.0744 15.7061 93.2046 15.7061ZM100.84 10.1028C99.7862 12.4167 99.2585 13.5741 98.3063 15.6527H97.6072L100.513 9.41613H101.176L104.082 15.6527H103.373C102.063 12.7896 102.391 13.5094 100.84 10.1028Z" fill="#4D4D4D"/>
<path fill-rule="evenodd" clip-rule="evenodd" d="M56.063 21.7843H114.415V22.3922H56.063V21.7843Z" fill="#4D4D4D"/>
<path fill-rule="evenodd" clip-rule="evenodd" d="M59.7105 28.0105C62.6003 28.0105 65.0118 30.0577 65.0118 33.0333C65.0118 36.0096 62.6003 38.0551 59.7105 38.0551H56.063V28.0105H59.7105ZM122.157 25.4313H120.94L119.926 26.8132H120.228L122.157 25.4313ZM72.6809 33.7473C73.0771 33.9277 73.4354 34.1958 73.6596 34.5707L75.0478 36.8139C75.2645 37.1647 75.6169 37.6041 75.9553 37.8449L76.249 38.0551H74.7566L74.7251 38.032C74.4108 37.7953 74.146 37.5231 73.9392 37.1871L72.3831 34.6625C72.1845 34.3307 71.8718 34.0337 71.5285 33.85H68.9539V38.0551H67.8114V28.0105H71.6691C73.3733 28.0105 75.2885 28.9961 75.2885 30.9025C75.2885 32.4267 74.0649 33.4321 72.6809 33.7473ZM84.2249 35.0555H79.2604L77.9433 38.0551H77.2988L81.7025 28.0105H82.3437L86.7341 38.0551H85.5279L84.2249 35.0555ZM89.5883 38.1255C89.1341 38.1255 88.7577 37.7671 88.7577 37.3096C88.7577 36.847 89.1234 36.4639 89.5883 36.4639C90.0607 36.4639 90.4189 36.8396 90.4189 37.3096C90.4189 37.7738 90.0499 38.1255 89.5883 38.1255ZM101.549 38.1958C99.9196 38.1958 97.8869 37.2889 97.8869 35.4163V35.3005H98.4272V35.4163C98.4272 36.9579 100.135 37.6836 101.464 37.6836C102.559 37.6836 104.193 37.1929 104.193 35.8516C104.193 34.5433 102.326 33.9228 101.338 33.5339C99.9709 32.996 98.1393 32.2877 98.1393 30.5384C98.1393 28.7312 99.9519 27.8707 101.549 27.8707C103.087 27.8707 104.748 28.8016 104.748 30.4962V30.612H104.207V30.4962C104.207 29.1086 102.857 28.3829 101.605 28.3829C100.528 28.3829 99.0716 28.9481 99.0716 30.2158C99.0716 31.4917 100.917 32.1321 101.885 32.5045C103.287 33.0448 105.126 33.6679 105.126 35.4726C105.126 37.4039 103.229 38.1958 101.549 38.1958ZM111.086 28.5227V38.0551H109.944V28.5227H106.511V28.0105H114.506V28.5227H111.086ZM118.126 37.5437H124.013V38.0551H116.983V28.0105H123.872V28.5227H118.126V32.7072H122.751V33.2194H118.126V37.5437ZM127.8 34.3547V38.0551H126.658V28.0105H130.796C132.653 28.0105 134.415 29.2037 134.415 31.183C134.415 33.1615 132.653 34.3547 130.796 34.3547H127.8ZM144.097 33.2194H138.106V38.0551H136.963V28.0105H138.106V32.7072H144.097V28.0105H145.239V38.0551H144.097V33.2194ZM154.61 35.0555H149.646L148.328 38.0551H147.683L152.087 28.0105H152.729L157.119 38.0551H155.913L154.61 35.0555ZM160.131 28.9977V38.0551H159.563V28.0105H160.787L167.229 36.3257V28.0105H167.798V38.0551H167.148L160.131 28.9977ZM171.284 38.0551V28.0105H172.426V38.0551H171.284ZM177.055 37.5437H182.941V38.0551H175.913V28.0105H182.801V28.5227H177.055V32.7072H181.68V33.2194H177.055V37.5437ZM196.77 35.0555H191.806L190.489 38.0551H189.843L194.248 28.0105H194.889L199.28 38.0551H198.073L196.77 35.0555ZM202.292 28.9977V38.0551H201.723V28.0105H202.948L209.39 36.3257V28.0105H209.957V38.0551H209.309L202.292 28.9977ZM221.224 37.1433C220.445 37.912 219.12 38.1958 218.073 38.1958C215.111 38.1958 212.744 36.0394 212.744 33.0333C212.744 29.9948 215.131 27.8707 218.115 27.8707C219.642 27.8707 221.917 28.598 221.917 30.4681V30.5831H221.377V30.4681C221.377 28.9688 219.516 28.3829 218.297 28.3829C215.519 28.3829 213.942 30.3432 213.942 33.0333C213.942 35.6662 215.472 37.6836 218.213 37.6836C219.21 37.6836 220.534 37.3915 221.027 36.4126V33.6745H222.155V38.0551H221.837L221.224 37.1433ZM226.574 37.5437H232.46V38.0551H225.431V28.0105H232.32V28.5227H226.574V32.7072H231.199V33.2194H226.574V37.5437ZM236.247 37.5437H241.784V38.0551H235.105V28.0105H236.247V37.5437ZM247.824 38.1958C244.885 38.1958 242.636 35.9815 242.636 33.0333C242.636 30.0858 244.885 27.8707 247.824 27.8707C250.767 27.8707 253 30.0875 253 33.0333C253 35.9799 250.767 38.1958 247.824 38.1958ZM57.2055 28.5227V37.5437H59.5699C62.2429 37.5437 63.8139 35.6315 63.8139 33.0333C63.8139 30.435 62.2429 28.5227 59.5699 28.5227H57.2055ZM68.9539 28.5227V33.3377H71.5152C72.9994 33.3377 74.0906 32.4639 74.0906 30.9307C74.0906 29.3974 72.9994 28.5227 71.5152 28.5227H68.9539ZM79.4746 34.5442H83.9974L81.7356 29.3825L79.4746 34.5442ZM127.8 28.5227V33.8425H130.641C132.235 33.8425 133.217 32.7535 133.217 31.183C133.217 29.6125 132.235 28.5227 130.641 28.5227H127.8ZM149.859 34.5442H154.382L152.121 29.3825L149.859 34.5442ZM192.02 34.5442H196.543L194.282 29.3825L192.02 34.5442ZM247.824 37.6836C250.494 37.6836 251.801 35.509 251.801 33.0333C251.801 30.5583 250.494 28.3829 247.824 28.3829C245.149 28.3829 243.834 30.5476 243.834 33.0333C243.834 35.5198 245.149 37.6836 247.824 37.6836Z" fill="#4D4D4D"/>
<path fill-rule="evenodd" clip-rule="evenodd" d="M27.464 7.3859L15.7002 7.40188L9.31697 13.9519C10.0704 16.4968 11.4513 18.7505 13.9245 20.1377C16.3251 21.4841 19.1489 21.8423 21.8296 22.2041C24.4749 20.1381 27.5299 17.8777 30.9098 17.4747C36.2368 17.1945 40.0234 20.24 43.5848 23.8852L43.7638 24.0684L35.955 32.0812C36.5479 34.4062 36.664 36.9094 36.664 39.4793L28.735 39.4898L22.8879 45.4897L17.0409 39.5054H17.0407L16.1336 38.5768L15.8592 38.2962L28.2436 38.28L34.6334 31.7234C33.8791 29.1747 32.4962 26.9179 30.0191 25.5298C27.6583 24.2067 24.8062 23.8278 22.16 23.4701C19.8761 25.2602 17.4494 27.1751 14.6522 28.0103C9.04018 29.6857 4.18206 26.0784 0.417272 22.2257L0 21.7987L7.99499 13.5946C7.44733 11.405 7.28663 9.05346 7.28663 6.80718V6.20258L15.2091 6.192L20.7461 0.510284L26.2829 6.17716L26.58 6.48114L27.464 7.3859ZM14.028 7.40413L8.47341 7.41156C8.4965 9.11353 8.62224 10.8907 8.97577 12.5884L14.028 7.40413ZM23.484 22.4357C26.5035 22.885 29.7399 23.5781 32.1306 25.5143C33.8208 27.0752 34.8894 28.8507 35.5612 30.7714L42.0898 24.0724C38.7229 20.7207 34.363 17.5368 29.4275 19.0137C27.2602 19.6622 25.3074 21.0305 23.484 22.4357ZM27.0623 39.4921L18.7131 39.5031L22.8877 43.7756L27.0623 39.4921ZM29.9163 38.2777L35.4775 38.2705C35.4544 36.5665 35.3282 34.7872 34.9744 33.0872L29.9163 38.2777ZM20.5045 23.2421C18.0468 22.89 15.5263 22.417 13.3557 21.1988C10.7746 19.7504 9.25432 17.4927 8.38062 14.9127L1.67418 21.7946C5.03707 25.1425 9.39131 28.3213 14.3213 26.8483C16.6107 26.1643 18.6091 24.7173 20.5045 23.2421ZM16.8813 6.18975L24.6105 6.1794L20.7459 2.22418L16.8813 6.18975Z" fill="#4D4D4D"/>
</svg>
