<svg width="140" height="124" viewBox="0 0 140 124" fill="none" xmlns="http://www.w3.org/2000/svg">
<rect width="140" height="123.553" rx="4" fill="#4D4D4D"/>
<path fill-rule="evenodd" clip-rule="evenodd" d="M79.5963 35.5491L59.3731 35.5759L48.3997 46.5781C49.6949 50.8528 52.0688 54.6384 56.3204 56.9684C60.4473 59.2301 65.3017 59.8318 69.9101 60.4396C74.4576 56.9692 79.7097 53.1723 85.5199 52.4953C94.6777 52.0248 101.187 57.1404 107.31 63.2632L107.617 63.5709L94.1931 77.0302C95.2125 80.9356 95.412 85.1403 95.412 89.4569L81.7812 89.4746L71.7295 99.5528L61.6779 89.5007H61.6775L60.1181 87.9409L59.6464 87.4696L80.9365 87.4424L91.9213 76.4292C90.6245 72.1481 88.2472 68.3573 83.9888 66.0257C79.9303 63.8033 75.0272 63.1669 70.4782 62.5659C66.552 65.5729 62.3801 68.7893 57.5714 70.1922C47.9238 73.0065 39.5722 66.9471 33.1001 60.4758L32.3828 59.7585L46.127 45.978C45.1855 42.3001 44.9093 38.3501 44.9093 34.577V33.5614L58.5288 33.5437L68.0475 24L77.5659 33.5187L78.0765 34.0293L79.5963 35.5491ZM56.4984 35.5797L46.9494 35.5922C46.9891 38.451 47.2054 41.4361 47.8131 44.2878L56.4984 35.5797ZM72.7541 60.8285C77.945 61.5832 83.5088 62.7473 87.6187 65.9996C90.5244 68.6215 92.3612 71.6039 93.5162 74.8301L104.74 63.5777C98.9516 57.9477 91.4565 52.5997 82.9718 55.0806C79.2459 56.1698 75.8889 58.4682 72.7541 60.8285ZM78.9058 89.4784L64.5526 89.4969L71.7292 96.6735L78.9058 89.4784ZM83.8119 87.4386L93.3723 87.4265C93.3326 84.5643 93.1156 81.5754 92.5075 78.72L83.8119 87.4386ZM67.6321 62.183C63.407 61.5915 59.0742 60.7971 55.3426 58.7509C50.9055 56.318 48.292 52.5256 46.79 48.192L35.2609 59.7517C41.042 65.3752 48.5274 70.7146 57.0026 68.2405C60.9382 67.0915 64.3738 64.6609 67.6321 62.183ZM61.4035 33.5399L74.6908 33.5225L68.0472 26.8789L61.4035 33.5399Z" fill="#F4F1F0"/>
</svg>
