<svg xmlns="http://www.w3.org/2000/svg" width="171" height="318" viewBox="0 0 171 318" fill="none">
  <path opacity="0.77" fill-rule="evenodd" clip-rule="evenodd" d="M193.913 48.501L110.854 48.6136L65.7837 94.776C71.1035 112.711 80.8536 128.595 98.3156 138.371C115.265 147.861 135.203 150.385 154.131 152.935C172.808 138.374 194.379 122.443 218.243 119.603C255.855 117.629 282.59 139.093 307.736 164.782L309 166.073L253.865 222.545C258.052 238.931 258.871 256.573 258.871 274.684L202.887 274.759L161.603 317.044L120.32 274.868H120.318L113.913 268.324L111.976 266.346L199.418 266.232L244.534 220.024C239.208 202.061 229.444 186.156 211.954 176.373C195.285 167.049 175.147 164.378 156.464 161.857C140.338 174.473 123.204 187.968 103.454 193.855C63.8294 205.663 29.528 180.239 2.94621 153.087L0 150.077L56.4497 92.2578C52.5829 76.8265 51.4482 60.2534 51.4482 44.4224V40.1613L107.386 40.0868L146.481 0.0439453L185.574 39.9822L187.671 42.1245L193.913 48.501ZM99.0469 48.6295L59.8277 48.6818C59.9906 60.6767 60.8785 73.2013 63.3746 85.1661L99.0469 48.6295ZM165.812 154.567C187.131 157.734 209.983 162.618 226.862 176.264C238.797 187.264 246.341 199.778 251.085 213.314L297.181 166.102C273.409 142.48 242.625 120.041 207.777 130.45C192.474 135.02 178.687 144.664 165.812 154.567ZM191.077 274.775L132.127 274.852L161.602 304.963L191.077 274.775ZM211.228 266.216L250.493 266.165C250.33 254.156 249.439 241.616 246.941 229.635L211.228 266.216ZM144.775 160.25C127.422 157.768 109.626 154.435 94.2999 145.85C76.0757 135.642 65.3414 119.73 59.1725 101.547L11.8208 150.049C35.5649 173.644 66.3086 196.046 101.118 185.666C117.282 180.845 131.392 170.647 144.775 160.25ZM119.193 40.0709L173.766 39.998L146.479 12.1229L119.193 40.0709Z" fill="url(#paint0_linear_635_3284)"/>
  <defs>
    <linearGradient id="paint0_linear_635_3284" x1="-10.517" y1="194.851" x2="271.187" y2="110.211" gradientUnits="userSpaceOnUse">
      <stop stop-color="#F7F1E7" stop-opacity="0"/>
      <stop offset="0.475572" stop-color="#EFE8DD" stop-opacity="0.11"/>
      <stop offset="1" stop-color="#BAB09B"/>
    </linearGradient>
  </defs>
</svg>