<svg width="18" height="18" viewBox="0 0 18 18" fill="none" xmlns="http://www.w3.org/2000/svg">
<path d="M8.63721 0.781185C8.78057 0.472493 9.21943 0.472492 9.36279 0.781185L11.7394 5.8987C11.7977 6.0242 11.9167 6.11066 12.0541 6.12731L17.6555 6.8062C17.9934 6.84715 18.129 7.26453 17.8797 7.49626L13.7471 11.3379C13.6457 11.4322 13.6003 11.5721 13.6269 11.7078L14.7122 17.2449C14.7776 17.5789 14.4226 17.8369 14.1252 17.6714L9.19447 14.9282C9.07355 14.8609 8.92645 14.8609 8.80553 14.9282L3.87482 17.6714C3.57739 17.8369 3.22235 17.5789 3.28782 17.2449L4.3731 11.7078C4.39972 11.5721 4.35426 11.4322 4.25291 11.3379L0.120279 7.49626C-0.129005 7.26453 0.00660932 6.84715 0.344494 6.8062L5.94595 6.12731C6.08332 6.11066 6.20233 6.0242 6.26061 5.8987L8.63721 0.781185Z" fill="#BAB09B"/>
</svg>
